<?xml version="1.0" ?><svg height="90px" id="Layer_1" style="enable-background:new 0 0 90 90;" version="1.1" viewBox="0 0 90 90" width="90px" xml:space="preserve" xmlns="http://www.w3.org/2000/svg" xmlns:xlink="http://www.w3.org/1999/xlink"><style type="text/css">
	.st0{fill:#DAE3E6;}
	.st1{fill:#FFFFFF;}
	.st2{fill:#4185E3;}
	.st3{fill:#A0EB60;}
	.st4{fill:#FFCC00;}
	.st5{fill:#E45544;}
	.st6{fill:#55BE07;}
	.st7{opacity:0.2;fill:#183945;}
	.st8{fill:#FCFCFC;}
	.st9{fill:#58CAEF;}
	.st10{fill:#CFF3FF;}
	.st11{fill-rule:evenodd;clip-rule:evenodd;fill:#FF6D55;}
	.st12{fill-rule:evenodd;clip-rule:evenodd;fill:#F7485E;}
	.st13{fill:#A6C4CC;}
	.st14{fill:#676785;}
	.st15{fill:#FFA600;}
	.st16{fill:#CFF0FF;}
	.st17{fill:#009CEB;}
	.st18{fill:#EFF9FC;}
	.st19{fill:#5386A1;}
	.st20{fill:#E3F3FF;}
	.st21{fill:#967200;}
	.st22{fill:#FFDD00;}
	.st23{fill:#383128;}
	.st24{fill:#94633A;}
	.st25{fill:#F2AD00;}
	.st26{fill:#FFCE00;}
	.st27{fill:#FFF561;}
	.st28{opacity:0.2;fill:#730248;}
	.st29{fill:#FF5430;}
	.st30{fill:#FFEE00;}
	.st31{fill:#43B0EF;}
	.st32{fill:#81D4EF;}
	.st33{fill:#5B6875;}
	.st34{opacity:0.2;fill:#1F2C4F;}
	.st35{opacity:0.1;fill:#203880;}
	.st36{fill:#A3AFB5;}
	.st37{fill:#FF443B;}
	.st38{fill:#FFA300;}
	.st39{fill:#43D400;}
	.st40{fill:#FFAA00;}
	.st41{fill:#738394;}
</style><circle class="st0" cx="45" cy="45" r="45"/><path class="st31" d="M68,36v-8c0-1.1046009-0.895401-2-2-2H44c-1.1046028,0-2-0.8953991-2-2v-2c0-1.1046009-0.8954048-2-2-2H26  c-1.1046028,0-2,0.8953991-2,2v2c0,1.1046009-0.8954029,2-2,2h-2c-1.1046028,0-2,0.8953991-2,2v35.4846992"/><path class="st34" d="M18.4246826,63.4766846C21.5895386,63.4169312,33,64.0309448,33,64l9-28h26c0,0,0.0593872-2,0-2H25.1239014  c-0.925293,0-1.7351074,0.6091919-1.9735107,1.4846802L18,62v0.5749512  C18.0605469,62.8768921,18.2079468,63.1846313,18.4246826,63.4766846z"/><path class="st32" d="M66.8760986,66H20.0434971c-1.3418999,0-2.3192005-1.2455978-1.9734001-2.5153008l7.0802994-26  C25.3887959,36.6091995,26.198597,36,27.1238976,36h46.8325996c1.3418961,0,2.3191986,1.2456017,1.9733963,2.5153008  l-7.0802994,25.9999962C68.6111984,65.3908005,67.8013992,66,66.8760986,66z"/></svg>